<svg width="249" height="49" fill="none" xmlns="http://www.w3.org/2000/svg"><mask id="a" maskUnits="userSpaceOnUse" x="-.18" y="-.875" width="249" height="50" fill="#000"><path fill="#fff" d="M-.18-.875h249v50h-249z"/><path d="M23.258 7.688L9.664 47.124H1.445l17.125-45.5h5.25l-.562 6.063zm11.375 39.437L21.008 7.687l-.594-6.062h5.281l17.188 45.5h-8.25zm-.656-16.875v6.219H9.227V30.25h24.75zm44.337 5.156c0-.937-.146-1.77-.437-2.5-.271-.729-.76-1.396-1.47-2-.707-.604-1.707-1.187-3-1.75-1.27-.583-2.895-1.177-4.874-1.781a54.024 54.024 0 01-6-2.219c-1.813-.833-3.396-1.791-4.75-2.875-1.354-1.104-2.406-2.364-3.156-3.781-.75-1.438-1.125-3.094-1.125-4.969 0-1.854.385-3.541 1.156-5.062.791-1.521 1.906-2.834 3.344-3.938 1.458-1.125 3.177-1.99 5.156-2.593C65.137 1.313 67.324 1 69.72 1c3.375 0 6.282.625 8.72 1.875 2.457 1.25 4.343 2.927 5.655 5.031 1.334 2.104 2 4.427 2 6.969h-7.78c0-1.5-.324-2.823-.97-3.969-.625-1.166-1.583-2.083-2.875-2.75-1.27-.666-2.885-1-4.843-1-1.855 0-3.396.282-4.625.844-1.23.563-2.146 1.323-2.75 2.281-.605.959-.907 2.042-.907 3.25 0 .854.198 1.636.594 2.344.396.688 1 1.333 1.813 1.938.812.583 1.833 1.135 3.062 1.656 1.23.52 2.677 1.02 4.344 1.5 2.52.75 4.719 1.583 6.594 2.5 1.875.896 3.437 1.916 4.687 3.062 1.25 1.146 2.188 2.448 2.813 3.907.625 1.437.937 3.072.937 4.906 0 1.916-.385 3.646-1.156 5.187-.771 1.521-1.875 2.823-3.313 3.907-1.416 1.062-3.125 1.885-5.125 2.468-1.979.563-4.187.844-6.625.844a24.33 24.33 0 01-6.468-.875 19.08 19.08 0 01-5.75-2.656 13.728 13.728 0 01-4.125-4.5c-1.021-1.813-1.532-3.927-1.532-6.344h7.844c0 1.48.25 2.74.75 3.781a6.97 6.97 0 002.156 2.563c.917.646 1.98 1.125 3.188 1.437a15.93 15.93 0 003.937.469c1.834 0 3.365-.26 4.594-.781 1.25-.521 2.188-1.25 2.813-2.188.625-.937.937-2.02.937-3.25zm45.15 0c0-.937-.146-1.77-.437-2.5-.271-.729-.761-1.396-1.469-2-.709-.604-1.709-1.187-3-1.75-1.271-.583-2.896-1.177-4.875-1.781a53.98 53.98 0 01-6-2.219c-1.813-.833-3.396-1.791-4.75-2.875-1.354-1.104-2.406-2.364-3.156-3.781-.75-1.438-1.125-3.094-1.125-4.969 0-1.854.385-3.541 1.156-5.062.791-1.521 1.906-2.834 3.344-3.938 1.458-1.125 3.177-1.99 5.156-2.593 1.979-.625 4.166-.938 6.562-.938 3.375 0 6.282.625 8.719 1.875 2.458 1.25 4.344 2.927 5.656 5.031 1.334 2.104 2 4.427 2 6.969h-7.781c0-1.5-.323-2.823-.969-3.969-.625-1.166-1.583-2.083-2.875-2.75-1.271-.666-2.885-1-4.843-1-1.855 0-3.396.282-4.625.844-1.23.563-2.146 1.323-2.75 2.281-.605.959-.907 2.042-.907 3.25 0 .854.198 1.636.594 2.344.396.688 1 1.333 1.813 1.938.812.583 1.833 1.135 3.062 1.656 1.229.52 2.677 1.02 4.344 1.5 2.521.75 4.719 1.583 6.594 2.5 1.875.896 3.437 1.916 4.687 3.062 1.25 1.146 2.188 2.448 2.813 3.907.625 1.437.937 3.072.937 4.906 0 1.916-.385 3.646-1.156 5.187-.771 1.521-1.875 2.823-3.313 3.907-1.416 1.062-3.125 1.885-5.125 2.468-1.979.563-4.187.844-6.625.844a24.34 24.34 0 01-6.468-.875 19.07 19.07 0 01-5.75-2.656 13.72 13.72 0 01-4.125-4.5c-1.021-1.813-1.532-3.927-1.532-6.344h7.844c0 1.48.25 2.74.75 3.781a6.978 6.978 0 002.156 2.563c.917.646 1.979 1.125 3.188 1.437 1.229.313 2.541.469 3.937.469 1.834 0 3.365-.26 4.594-.781 1.25-.521 2.188-1.25 2.813-2.188.625-.937.937-2.02.937-3.25zm29.588-33.781v45.5h-7.844v-45.5h7.844zm40.087 33.781c0-.937-.146-1.77-.437-2.5-.271-.729-.761-1.396-1.469-2-.709-.604-1.709-1.187-3-1.75-1.271-.583-2.896-1.177-4.875-1.781a53.98 53.98 0 01-6-2.219c-1.813-.833-3.396-1.791-4.75-2.875-1.354-1.104-2.406-2.364-3.156-3.781-.75-1.438-1.125-3.094-1.125-4.969 0-1.854.385-3.541 1.156-5.062.791-1.521 1.906-2.834 3.344-3.938 1.458-1.125 3.177-1.99 5.156-2.593 1.979-.625 4.166-.938 6.562-.938 3.375 0 6.282.625 8.719 1.875 2.458 1.25 4.344 2.927 5.656 5.031 1.334 2.104 2 4.427 2 6.969h-7.781c0-1.5-.323-2.823-.969-3.969-.625-1.166-1.583-2.083-2.875-2.75-1.271-.666-2.885-1-4.843-1-1.855 0-3.396.282-4.625.844-1.23.563-2.146 1.323-2.75 2.281-.605.959-.907 2.042-.907 3.25 0 .854.198 1.636.594 2.344.396.688 1 1.333 1.813 1.938.812.583 1.833 1.135 3.062 1.656 1.229.52 2.677 1.02 4.344 1.5 2.521.75 4.719 1.583 6.594 2.5 1.875.896 3.437 1.916 4.687 3.062 1.25 1.146 2.188 2.448 2.813 3.907.625 1.437.937 3.072.937 4.906 0 1.916-.385 3.646-1.156 5.187-.771 1.521-1.875 2.823-3.313 3.907-1.416 1.062-3.125 1.885-5.125 2.468-1.979.563-4.187.844-6.625.844a24.34 24.34 0 01-6.468-.875 19.07 19.07 0 01-5.75-2.656 13.71 13.71 0 01-4.125-4.5c-1.021-1.813-1.532-3.927-1.532-6.344h7.844c0 1.48.25 2.74.75 3.781a6.978 6.978 0 002.156 2.563c.917.646 1.979 1.125 3.188 1.437 1.229.313 2.541.469 3.937.469 1.834 0 3.365-.26 4.594-.781 1.25-.521 2.188-1.25 2.813-2.188.625-.937.937-2.02.937-3.25zM233.07 1.625v45.5h-7.781v-45.5h7.781zm14.282 0v6.25h-36.219v-6.25h36.219z"/></mask><path d="M23.258 7.688l.945.325.04-.113.01-.12-.995-.093zM9.664 47.124v1h.713l.232-.674-.945-.326zm-8.219 0l-.936-.352L0 48.125h1.445v-1zm17.125-45.5v-1h-.692l-.244.648.936.352zm5.25 0l.996.092.101-1.092H23.82v1zm10.813 45.5l-.945.327.232.673h.713v-1zM21.008 7.687l-.995.098.011.117.039.112.945-.326zm-.594-6.062v-1h-1.103l.108 1.097.995-.097zm5.281 0l.936-.353-.244-.647h-.692v1zm17.188 45.5v1h1.447l-.512-1.353-.935.353zM33.977 30.25h1v-1h-1v1zm0 6.219v1h1v-1h-1zm-24.75 0h-1v1h1v-1zm0-6.219v-1h-1v1h1zm14.03-22.563l-.945-.325L8.72 46.799l.945.326.946.326L24.203 8.013l-.945-.325zM9.665 47.126v-1h-8.22v2h8.22v-1zm-8.219 0l.936.352 17.125-45.5-.936-.352-.936-.352L.51 46.773l.936.352zm17.125-45.5v1h5.25v-2h-5.25v1zm5.25 0l-.995-.092-.563 6.062.996.093.995.092.563-6.063-.996-.092zm10.813 45.5l.945-.327L21.953 7.361l-.945.327-.945.326 13.625 39.438.945-.327zM21.008 7.687l.995-.097-.594-6.062-.995.097-.995.097.594 6.063.995-.098zm-.594-6.062v1h5.281v-2h-5.28v1zm5.281 0l-.935.353 17.187 45.5.936-.353.935-.353-17.187-45.5-.936.353zm17.188 45.5v-1h-8.25v2h8.25v-1zM33.977 30.25h-1v6.219h2V30.25h-1zm0 6.219v-1H9.227v2h24.75v-1zm-24.75 0h1V30.25h-2v6.219h1zm0-6.219v1h24.75v-2H9.227v1zm68.65 2.656l-.938.348.005.012.004.012.929-.372zm-1.47-2l-.648.761.649-.76zm-3-1.75l-.416.91.009.003.008.004.4-.917zm-4.874-1.781l-.294.956h.002l.292-.956zm-6-2.219l-.418.909.013.005.405-.914zm-4.75-2.875l-.632.775.007.006.625-.78zM54.627 18.5l-.887.463.003.005.884-.468zm.03-10.031l-.886-.462-.005.01.892.452zm3.345-3.938l.609.793.001-.001-.61-.792zm5.156-2.593l.292.956.009-.003-.301-.954zm15.281.937l-.456.89.003.001.453-.891zm5.656 5.031l-.848.53.004.005.844-.535zm2 6.969v1h1v-1h-1zm-7.78 0h-1v1h1v-1zm-.97-3.969l-.881.473.005.009.005.01.871-.492zm-2.875-2.75l-.464.886.006.003.458-.889zM65.002 8l-.417-.91.417.91zm-3.063 7.875l-.873.488.006.011.867-.499zm1.813 1.938l-.597.802.007.005.006.005.584-.813zm3.062 1.656l-.39.92.39-.92zm4.344 1.5l.285-.959-.009-.002-.276.96zm6.594 2.5l-.44.898.008.004.432-.902zm7.5 6.968l-.92.394.003.005.917-.398zm-.22 10.094l.893.452.002-.005-.894-.447zm-3.312 3.907l.6.8.002-.002-.602-.798zm-5.125 2.468l.274.962.006-.002-.28-.96zm-13.093-.031l-.268.964h.003l.265-.964zm-5.75-2.656l-.573.82.006.004.567-.824zm-4.125-4.5l-.872.49.003.005.869-.495zm-1.532-6.344v-1h-1v1h1zm7.844 0h1v-1h-1v1zm.75 3.781l-.901.433.003.007.004.008.894-.448zm2.156 2.563l-.588.809.006.004.006.004.576-.817zm3.188 1.437l-.25.968.003.001.247-.969zm8.531-.312l-.385-.923-.005.002.39.92zm3.75-5.438h1c0-1.04-.162-2.003-.509-2.871l-.928.371-.929.372c.236.59.366 1.294.366 2.128h1zm-.437-2.5l.937-.348c-.34-.918-.945-1.72-1.757-2.413l-.65.761-.648.761c.604.515.98 1.047 1.18 1.587l.938-.348zm-1.47-2l.65-.76c-.812-.693-1.91-1.323-3.25-1.907l-.4.917-.398.917c1.242.541 2.145 1.078 2.75 1.594l.649-.76zm-3-1.75l.418-.909c-1.326-.608-2.996-1.217-5-1.828l-.292.956-.292.956c1.954.597 3.534 1.176 4.75 1.734l.417-.909zm-4.874-1.781l.294-.956a53.036 53.036 0 01-5.889-2.177l-.405.914-.405.915a55.069 55.069 0 006.11 2.26l.295-.956zm-6-2.219l.417-.908c-1.749-.805-3.26-1.722-4.543-2.748l-.624.781-.625.781c1.426 1.141 3.081 2.14 4.957 3.003l.418-.909zm-4.75-2.875l.632-.775c-1.26-1.027-2.223-2.186-2.905-3.474l-.883.468-.884.468c.818 1.545 1.96 2.907 3.408 4.088l.632-.775zM54.627 18.5l.886-.463c-.664-1.273-1.011-2.766-1.011-4.506h-2c0 2.011.403 3.83 1.238 5.432l.887-.463zm-1.125-4.969h1c0-1.71.354-3.241 1.048-4.61l-.892-.452-.892-.452c-.848 1.673-1.264 3.517-1.264 5.514h1zm1.156-5.062l.887.461c.72-1.384 1.737-2.585 3.066-3.606L58 4.531l-.609-.793c-1.546 1.188-2.758 2.611-3.621 4.269l.887.462zm3.344-3.938l.61.792c1.352-1.043 2.96-1.856 4.838-2.43l-.292-.955-.292-.957c-2.08.635-3.91 1.551-5.475 2.758l.61.792zm5.156-2.593l.3.953C65.328 2.301 67.412 2 69.72 2V0c-2.482 0-4.773.324-6.863.984l.3.954zM69.72 1v1c3.253 0 5.996.602 8.263 1.765l.456-.89.456-.89C76.288.648 73.218 0 69.72 0v1zm8.72 1.875l-.454.891c2.315 1.177 4.055 2.737 5.26 4.67l.85-.53.848-.529c-1.42-2.275-3.45-4.07-6.052-5.393l-.453.891zm5.655 5.031l-.844.535c1.23 1.941 1.844 4.078 1.844 6.434h2c0-2.727-.718-5.236-2.155-7.504l-.845.535zm2 6.969v-1h-7.78v2h7.78v-1zm-7.78 0h1c0-1.648-.357-3.144-1.099-4.46l-.87.491-.872.491c.55.976.84 2.126.84 3.478h1zm-.97-3.969l.882-.472c-.73-1.363-1.845-2.416-3.298-3.166l-.459.888-.458.889c1.13.583 1.932 1.363 2.452 2.334l.881-.473zm-2.875-2.75l.465-.885c-1.457-.764-3.244-1.115-5.308-1.115v2c1.852 0 3.294.317 4.379.886l.464-.886zm-4.843-1v-1c-1.948 0-3.643.295-5.042.935l.417.909.416.91c1.06-.486 2.448-.754 4.209-.754v-1zM65.002 8l-.417-.91c-1.37.628-2.453 1.506-3.18 2.658l.847.533.845.534c.482-.765 1.234-1.408 2.32-1.906L65.003 8zm-2.75 2.281l-.846-.533c-.712 1.129-1.06 2.4-1.06 3.783h2c0-1.033.255-1.929.752-2.716l-.846-.534zm-.907 3.25h-1a5.73 5.73 0 00.721 2.832l.873-.488.873-.488a3.723 3.723 0 01-.467-1.856h-1zm.594 2.344l-.867.499c.48.834 1.19 1.577 2.083 2.241l.597-.802.596-.803c-.732-.544-1.23-1.093-1.542-1.634l-.867.499zm1.813 1.938l-.584.812c.89.638 1.98 1.224 3.256 1.765l.39-.921.39-.921c-1.182-.5-2.133-1.02-2.87-1.548l-.582.813zm3.062 1.656l-.39.92c1.275.54 2.763 1.054 4.457 1.54l.277-.96.276-.961c-1.639-.471-3.047-.959-4.23-1.46l-.39.92zm4.344 1.5l-.285.958c2.48.738 4.625 1.553 6.44 2.44l.439-.898.439-.899c-1.936-.946-4.187-1.798-6.748-2.56l-.285.959zm6.594 2.5l-.431.902c1.805.863 3.28 1.832 4.442 2.897l.676-.737.676-.737c-1.337-1.226-2.987-2.298-4.932-3.228l-.431.903zm4.687 3.062l-.676.737c1.153 1.057 2.004 2.244 2.57 3.563l.919-.393.919-.394c-.685-1.598-1.709-3.015-3.056-4.25l-.676.737zm2.813 3.907l-.917.398c.561 1.292.854 2.789.854 4.508h2c0-1.948-.332-3.722-1.02-5.305l-.917.398zm.937 4.906h-1c0 1.779-.357 3.352-1.05 4.74l.894.447.894.447c.848-1.695 1.262-3.58 1.262-5.634h-1zm-1.156 5.187l-.892-.452c-.698 1.377-1.7 2.563-3.023 3.56l.602.798.602.8c1.553-1.17 2.76-2.59 3.603-4.254l-.892-.452zm-3.313 3.907l-.6-.8c-1.305.978-2.9 1.753-4.805 2.308l.28.96.28.96c2.096-.61 3.917-1.482 5.445-2.629l-.6-.8zm-5.125 2.468l-.273-.962c-1.876.533-3.99.806-6.352.806v2c2.514 0 4.816-.29 6.899-.882l-.274-.962zm-6.625.844v-1a23.33 23.33 0 01-6.204-.84l-.264.965-.265.964a25.32 25.32 0 006.733.911v-1zm-6.468-.875l.267-.964a18.077 18.077 0 01-5.451-2.517l-.566.825-.567.824a20.08 20.08 0 006.05 2.796l.267-.964zm-5.75-2.656l.572-.82a12.728 12.728 0 01-3.829-4.175l-.868.495-.87.495a14.727 14.727 0 004.422 4.824l.573-.82zm-4.125-4.5l.87-.491c-.923-1.64-1.402-3.58-1.402-5.853h-2c0 2.56.542 4.85 1.66 6.834l.872-.49zm-1.532-6.344v1h7.844v-2h-7.844v1zm7.844 0h-1c0 1.588.268 3.005.849 4.214l.901-.433.902-.432c-.42-.875-.652-1.98-.652-3.349h-1zm.75 3.781l-.894.447a7.972 7.972 0 002.462 2.925l.588-.81.589-.808a5.97 5.97 0 01-1.85-2.201l-.895.447zm2.156 2.563l-.576.817c1.026.723 2.202 1.25 3.513 1.588l.25-.968.251-.968c-1.105-.286-2.054-.718-2.862-1.287l-.576.818zm3.188 1.437l-.247.97c1.318.334 2.714.499 4.184.499v-2c-1.32 0-2.55-.148-3.69-.438l-.247.97zm3.937.469v1c1.92 0 3.595-.272 4.984-.86l-.39-.921-.39-.921c-1.069.453-2.458.702-4.204.702v1zm4.594-.781l.385.923c1.395-.581 2.505-1.424 3.26-2.556l-.832-.555-.832-.554c-.496.742-1.26 1.358-2.365 1.819l.384.923zm2.813-2.188l.832.555c.744-1.117 1.105-2.397 1.105-3.805h-2c0 1.05-.264 1.937-.77 2.696l.833.554zm45.65-5.75l-.938.348.004.012.005.012.929-.372zm-1.469-2l-.649.761.649-.76zm-3-1.75l-.417.91.009.003.009.004.399-.917zm-4.875-1.781l-.294.956h.002l.292-.956zm-6-2.219l-.418.909.013.005.405-.914zm-4.75-2.875l-.632.775.007.006.625-.78zM99.777 18.5l-.887.463.003.005.884-.468zm.03-10.031l-.886-.462-.005.01.892.452zm3.345-3.938l.609.793.001-.001-.61-.792zm5.156-2.593l.292.956.009-.003-.301-.954zm15.281.937l-.456.89.003.001.453-.891zm5.656 5.031l-.848.53.004.005.844-.535zm2 6.969v1h1v-1h-1zm-7.781 0h-1v1h1v-1zm-.969-3.969l-.881.473.005.009.005.01.871-.492zm-2.875-2.75l-.464.886.006.003.458-.889zM110.152 8l-.417-.91.417.91zm-3.063 7.875l-.873.488.006.011.867-.499zm1.813 1.938l-.597.802.007.005.006.005.584-.813zm3.062 1.656l-.39.92.39-.92zm4.344 1.5l.285-.959-.009-.002-.276.96zm6.594 2.5l-.44.898.008.004.432-.902zm7.5 6.968l-.92.394.002.005.918-.398zm-.219 10.094l.892.452.002-.005-.894-.447zm-3.313 3.907l.6.8.002-.002-.602-.798zm-5.125 2.468l.274.962.006-.002-.28-.96zm-13.093-.031l-.268.964h.003l.265-.964zm-5.75-2.656l-.573.82.006.004.567-.824zm-4.125-4.5l-.872.49.003.005.869-.495zm-1.532-6.344v-1h-1v1h1zm7.844 0h1v-1h-1v1zm.75 3.781l-.901.433.003.007.004.008.894-.448zm2.156 2.563l-.588.809.006.004.006.004.576-.817zm3.188 1.437l-.251.968.004.001.247-.969zm8.531-.312l-.385-.923-.005.002.39.92zm3.75-5.438h1c0-1.04-.162-2.003-.509-2.871l-.928.371-.929.372c.236.59.366 1.294.366 2.128h1zm-.437-2.5l.937-.348c-.341-.918-.945-1.72-1.757-2.413l-.649.761-.649.761c.604.515.979 1.047 1.18 1.587l.938-.348zm-1.469-2l.649-.76c-.812-.693-1.909-1.323-3.25-1.907l-.399.917-.399.917c1.242.541 2.145 1.078 2.75 1.594l.649-.76zm-3-1.75l.417-.909c-1.326-.608-2.997-1.217-5-1.828l-.292.956-.292.956c1.954.597 3.534 1.176 4.75 1.734l.417-.909zm-4.875-1.781l.294-.956a53.023 53.023 0 01-5.889-2.177l-.405.914-.405.915a54.977 54.977 0 006.111 2.26l.294-.956zm-6-2.219l.418-.908c-1.75-.805-3.262-1.722-4.543-2.748l-.625.781-.625.781c1.426 1.141 3.081 2.14 4.957 3.003l.418-.909zm-4.75-2.875l.632-.775c-1.26-1.027-2.223-2.186-2.905-3.474l-.883.468-.884.468c.818 1.545 1.959 2.907 3.408 4.088l.632-.775zM99.777 18.5l.886-.463c-.664-1.273-1.011-2.766-1.011-4.506h-2c0 2.011.403 3.83 1.238 5.432l.887-.463zm-1.125-4.969h1c0-1.71.354-3.241 1.048-4.61l-.892-.452-.892-.452c-.848 1.673-1.264 3.517-1.264 5.514h1zm1.156-5.062l.887.461c.72-1.384 1.737-2.585 3.066-3.606l-.609-.793-.61-.793c-1.546 1.188-2.758 2.611-3.621 4.269l.887.462zm3.344-3.938l.61.792c1.352-1.043 2.96-1.856 4.838-2.43l-.292-.955-.292-.957c-2.08.635-3.91 1.551-5.475 2.758l.611.792zm5.156-2.593l.301.953c1.868-.59 3.952-.891 6.261-.891V0c-2.482 0-4.773.324-6.863.984l.301.954zM114.87 1v1c3.253 0 5.995.602 8.263 1.765l.456-.89.456-.89C121.438.648 118.368 0 114.87 0v1zm8.719 1.875l-.453.891c2.315 1.177 4.055 2.737 5.261 4.67l.848-.53.849-.529c-1.42-2.275-3.45-4.07-6.052-5.393l-.453.891zm5.656 5.031l-.844.535c1.229 1.941 1.844 4.078 1.844 6.434h2c0-2.727-.718-5.236-2.155-7.504l-.845.535zm2 6.969v-1h-7.781v2h7.781v-1zm-7.781 0h1c0-1.648-.356-3.144-1.098-4.46l-.871.491-.871.491c.55.976.84 2.126.84 3.478h1zm-.969-3.969l.882-.472c-.73-1.363-1.845-2.416-3.298-3.166l-.459.888-.458.889c1.13.583 1.932 1.363 2.452 2.334l.881-.473zm-2.875-2.75l.465-.885c-1.457-.764-3.244-1.115-5.308-1.115v2c1.852 0 3.294.317 4.379.886l.464-.886zm-4.843-1v-1c-1.948 0-3.643.295-5.042.935l.417.909.416.91c1.059-.486 2.448-.754 4.209-.754v-1zM110.152 8l-.417-.91c-1.371.628-2.453 1.506-3.179 2.658l.846.533.845.534c.482-.765 1.234-1.408 2.321-1.906L110.152 8zm-2.75 2.281l-.846-.533c-.712 1.129-1.061 2.4-1.061 3.783h2c0-1.033.256-1.929.752-2.716l-.845-.534zm-.907 3.25h-1a5.73 5.73 0 00.721 2.832l.873-.488.873-.488a3.724 3.724 0 01-.467-1.856h-1zm.594 2.344l-.867.499c.481.834 1.19 1.577 2.083 2.241l.597-.802.596-.803c-.732-.544-1.231-1.093-1.542-1.634l-.867.499zm1.813 1.938l-.584.812c.889.638 1.98 1.224 3.256 1.765l.39-.921.39-.921c-1.182-.5-2.133-1.02-2.869-1.548l-.583.813zm3.062 1.656l-.39.92c1.275.54 2.763 1.054 4.458 1.54l.276-.96.276-.961c-1.639-.471-3.047-.959-4.23-1.46l-.39.92zm4.344 1.5l-.285.958c2.481.738 4.625 1.553 6.439 2.44l.44-.898.439-.899c-1.936-.946-4.187-1.798-6.748-2.56l-.285.959zm6.594 2.5l-.432.902c1.806.863 3.281 1.832 4.443 2.897l.676-.737.676-.737c-1.337-1.226-2.987-2.298-4.932-3.228l-.431.903zm4.687 3.062l-.676.737c1.153 1.057 2.004 2.244 2.569 3.563l.92-.393.919-.394c-.685-1.598-1.709-3.015-3.056-4.25l-.676.737zm2.813 3.907l-.918.398c.562 1.292.855 2.789.855 4.508h2c0-1.948-.332-3.722-1.02-5.305l-.917.398zm.937 4.906h-1c0 1.779-.357 3.352-1.051 4.74l.895.447.894.447c.848-1.695 1.262-3.58 1.262-5.634h-1zm-1.156 5.187l-.892-.452c-.698 1.377-1.7 2.563-3.023 3.56l.602.798.602.8c1.553-1.17 2.759-2.59 3.603-4.254l-.892-.452zm-3.313 3.907l-.6-.8c-1.305.978-2.9 1.753-4.805 2.308l.28.96.28.96c2.096-.61 3.917-1.482 5.445-2.629l-.6-.8zm-5.125 2.468l-.273-.962c-1.876.533-3.99.806-6.352.806v2c2.514 0 4.816-.29 6.899-.882l-.274-.962zm-6.625.844v-1c-2.097 0-4.164-.28-6.204-.84l-.264.965-.265.964a25.32 25.32 0 006.733.911v-1zm-6.468-.875l.267-.964a18.073 18.073 0 01-5.451-2.517l-.566.825-.567.824a20.094 20.094 0 006.049 2.796l.268-.964zm-5.75-2.656l.572-.82a12.732 12.732 0 01-3.829-4.175l-.868.495-.87.495a14.726 14.726 0 004.422 4.824l.573-.82zm-4.125-4.5l.87-.491c-.923-1.64-1.402-3.58-1.402-5.853h-2c0 2.56.542 4.85 1.66 6.834l.872-.49zm-1.532-6.344v1h7.844v-2h-7.844v1zm7.844 0h-1c0 1.588.268 3.005.849 4.214l.901-.433.902-.432c-.42-.875-.652-1.98-.652-3.349h-1zm.75 3.781l-.894.447a7.964 7.964 0 002.462 2.925l.588-.81.588-.808a5.982 5.982 0 01-1.85-2.201l-.894.447zm2.156 2.563l-.576.817c1.026.723 2.202 1.25 3.513 1.588l.251-.968.25-.968c-1.105-.286-2.054-.718-2.862-1.287l-.576.818zm3.188 1.437l-.247.97c1.318.334 2.714.499 4.184.499v-2a14.94 14.94 0 01-3.691-.438l-.246.97zm3.937.469v1c1.921 0 3.595-.272 4.984-.86l-.39-.921-.39-.921c-1.069.453-2.458.702-4.204.702v1zm4.594-.781l.385.923c1.395-.581 2.505-1.424 3.26-2.556l-.832-.555-.832-.554c-.496.742-1.26 1.358-2.366 1.819l.385.923zm2.813-2.188l.832.555c.744-1.117 1.105-2.397 1.105-3.805h-2c0 1.05-.264 1.937-.769 2.696l.832.554zm30.525-37.031h1v-1h-1v1zm0 45.5v1h1v-1h-1zm-7.844 0h-1v1h1v-1zm0-45.5v-1h-1v1h1zm7.844 0h-1v45.5h2v-45.5h-1zm0 45.5v-1h-7.844v2h7.844v-1zm-7.844 0h1v-45.5h-2v45.5h1zm0-45.5v1h7.844v-2h-7.844v1zm47.494 31.281l-.938.348.004.012.005.012.929-.372zm-1.469-2l-.649.761.649-.76zm-3-1.75l-.417.91.009.003.009.004.399-.917zm-4.875-1.781l-.294.956h.002l.292-.956zm-6-2.219l-.418.909.013.005.405-.914zm-4.75-2.875l-.632.775.007.006.625-.78zm-3.156-3.781l-.887.463.003.005.884-.468zm.031-10.031l-.887-.462-.005.01.892.452zm3.344-3.938l.609.793.001-.001-.61-.792zm5.156-2.593l.292.956.009-.003-.301-.954zm15.281.937l-.456.89.003.001.453-.891zm5.656 5.031l-.848.53.004.005.844-.535zm2 6.969v1h1v-1h-1zm-7.781 0h-1v1h1v-1zm-.969-3.969l-.881.473.005.009.005.01.871-.492zm-2.875-2.75l-.464.886.006.003.458-.889zM179.827 8l-.417-.91.417.91zm-3.063 7.875l-.873.488.006.011.867-.499zm1.813 1.938l-.597.802.007.005.006.005.584-.813zm3.062 1.656l-.39.92.39-.92zm4.344 1.5l.285-.959-.009-.002-.276.96zm6.594 2.5l-.44.898.008.004.432-.902zm7.5 6.968l-.92.394.003.005.917-.398zm-.219 10.094l.892.452.002-.005-.894-.447zm-3.313 3.907l.6.8.002-.002-.602-.798zm-5.125 2.468l.274.962.006-.002-.28-.96zm-13.093-.031l-.268.964h.003l.265-.964zm-5.75-2.656l-.573.82.006.004.567-.824zm-4.125-4.5l-.872.49.003.005.869-.495zm-1.532-6.344v-1h-1v1h1zm7.844 0h1v-1h-1v1zm.75 3.781l-.901.433.003.007.004.008.894-.448zm2.156 2.563l-.588.809.006.004.006.004.576-.817zm3.188 1.437l-.251.968.004.001.247-.969zm8.531-.312l-.385-.923-.005.002.39.92zm3.75-5.438h1c0-1.04-.162-2.003-.509-2.871l-.928.371-.929.372c.236.59.366 1.294.366 2.128h1zm-.437-2.5l.937-.348c-.341-.918-.945-1.72-1.757-2.413l-.649.761-.649.761c.604.515.979 1.047 1.18 1.587l.938-.348zm-1.469-2l.649-.76c-.812-.693-1.909-1.323-3.25-1.907l-.399.917-.399.917c1.242.541 2.145 1.078 2.75 1.594l.649-.76zm-3-1.75l.417-.909c-1.326-.608-2.997-1.217-5-1.828l-.292.956-.292.956c1.954.597 3.534 1.176 4.75 1.734l.417-.909zm-4.875-1.781l.294-.956a53.023 53.023 0 01-5.889-2.177l-.405.914-.405.915a54.977 54.977 0 006.111 2.26l.294-.956zm-6-2.219l.418-.908c-1.75-.805-3.262-1.722-4.543-2.748l-.625.781-.625.781c1.427 1.141 3.081 2.14 4.957 3.003l.418-.909zm-4.75-2.875l.632-.775c-1.26-1.027-2.223-2.186-2.905-3.474l-.883.468-.884.468c.818 1.545 1.959 2.907 3.408 4.088l.632-.775zm-3.156-3.781l.886-.463c-.664-1.273-1.011-2.766-1.011-4.506h-2c0 2.011.403 3.83 1.238 5.432l.887-.463zm-1.125-4.969h1c0-1.71.354-3.241 1.048-4.61l-.892-.452-.892-.452c-.848 1.673-1.264 3.517-1.264 5.514h1zm1.156-5.062l.887.461c.72-1.384 1.737-2.585 3.066-3.606l-.609-.793-.61-.793c-1.546 1.188-2.758 2.611-3.621 4.269l.887.462zm3.344-3.938l.61.792c1.352-1.043 2.96-1.856 4.838-2.43l-.292-.955-.292-.957c-2.08.635-3.91 1.551-5.475 2.758l.611.792zm5.156-2.593l.301.953c1.868-.59 3.952-.891 6.261-.891V0c-2.482 0-4.773.324-6.863.984l.301.954zM184.545 1v1c3.253 0 5.995.602 8.263 1.765l.456-.89.456-.89C191.113.648 188.043 0 184.545 0v1zm8.719 1.875l-.453.891c2.315 1.177 4.055 2.737 5.261 4.67l.848-.53.849-.529c-1.42-2.275-3.45-4.07-6.052-5.393l-.453.891zm5.656 5.031l-.844.535c1.229 1.941 1.844 4.078 1.844 6.434h2c0-2.727-.718-5.236-2.155-7.504l-.845.535zm2 6.969v-1h-7.781v2h7.781v-1zm-7.781 0h1c0-1.648-.356-3.144-1.098-4.46l-.871.491-.871.491c.55.976.84 2.126.84 3.478h1zm-.969-3.969l.882-.472c-.73-1.363-1.845-2.416-3.298-3.166l-.459.888-.458.889c1.13.583 1.932 1.363 2.452 2.334l.881-.473zm-2.875-2.75l.465-.885c-1.457-.764-3.244-1.115-5.308-1.115v2c1.852 0 3.294.317 4.379.886l.464-.886zm-4.843-1v-1c-1.948 0-3.643.295-5.042.935l.417.909.416.91c1.059-.486 2.448-.754 4.209-.754v-1zM179.827 8l-.417-.91c-1.371.628-2.453 1.506-3.179 2.658l.846.533.846.534c.481-.765 1.233-1.408 2.32-1.906L179.827 8zm-2.75 2.281l-.846-.533c-.712 1.129-1.061 2.4-1.061 3.783h2c0-1.033.256-1.929.753-2.716l-.846-.534zm-.907 3.25h-1a5.73 5.73 0 00.721 2.832l.873-.488.873-.488a3.724 3.724 0 01-.467-1.856h-1zm.594 2.344l-.867.499c.481.834 1.19 1.577 2.083 2.241l.597-.802.596-.803c-.732-.544-1.231-1.093-1.542-1.634l-.867.499zm1.813 1.938l-.584.812c.889.638 1.98 1.224 3.256 1.765l.39-.921.39-.921c-1.182-.5-2.133-1.02-2.869-1.548l-.583.813zm3.062 1.656l-.39.92c1.275.54 2.763 1.054 4.458 1.54l.276-.96.276-.961c-1.639-.471-3.047-.959-4.23-1.46l-.39.92zm4.344 1.5l-.285.958c2.481.738 4.625 1.553 6.439 2.44l.44-.898.439-.899c-1.936-.946-4.187-1.798-6.748-2.56l-.285.959zm6.594 2.5l-.432.902c1.806.863 3.281 1.832 4.443 2.897l.676-.737.676-.737c-1.337-1.226-2.987-2.298-4.932-3.228l-.431.903zm4.687 3.062l-.676.737c1.153 1.057 2.004 2.244 2.569 3.563l.92-.393.919-.394c-.685-1.598-1.709-3.015-3.056-4.25l-.676.737zm2.813 3.907l-.917.398c.561 1.292.854 2.789.854 4.508h2c0-1.948-.332-3.722-1.02-5.305l-.917.398zm.937 4.906h-1c0 1.779-.357 3.352-1.051 4.74l.895.447.894.447c.848-1.695 1.262-3.58 1.262-5.634h-1zm-1.156 5.187l-.892-.452c-.698 1.377-1.7 2.563-3.023 3.56l.602.798.602.8c1.553-1.17 2.759-2.59 3.603-4.254l-.892-.452zm-3.313 3.907l-.6-.8c-1.305.978-2.9 1.753-4.805 2.308l.28.96.28.96c2.096-.61 3.917-1.482 5.445-2.629l-.6-.8zm-5.125 2.468l-.273-.962c-1.876.533-3.99.806-6.352.806v2c2.514 0 4.816-.29 6.899-.882l-.274-.962zm-6.625.844v-1c-2.097 0-4.164-.28-6.204-.84l-.264.965-.265.964a25.32 25.32 0 006.733.911v-1zm-6.468-.875l.267-.964a18.073 18.073 0 01-5.451-2.517l-.566.825-.567.824a20.094 20.094 0 006.049 2.796l.268-.964zm-5.75-2.656l.572-.82a12.738 12.738 0 01-3.829-4.175l-.868.495-.869.495a14.725 14.725 0 004.421 4.824l.573-.82zm-4.125-4.5l.871-.491c-.924-1.64-1.403-3.58-1.403-5.853h-2c0 2.56.542 4.85 1.66 6.834l.872-.49zm-1.532-6.344v1h7.844v-2h-7.844v1zm7.844 0h-1c0 1.588.268 3.005.849 4.214l.901-.433.902-.432c-.42-.875-.652-1.98-.652-3.349h-1zm.75 3.781l-.894.447a7.964 7.964 0 002.462 2.925l.588-.81.588-.808a5.982 5.982 0 01-1.85-2.201l-.894.447zm2.156 2.563l-.576.817c1.026.723 2.202 1.25 3.513 1.588l.251-.968.25-.968c-1.105-.286-2.054-.718-2.862-1.287l-.576.818zm3.188 1.437l-.247.97c1.318.334 2.714.499 4.184.499v-2a14.94 14.94 0 01-3.691-.438l-.246.97zm3.937.469v1c1.921 0 3.595-.272 4.984-.86l-.39-.921-.39-.921c-1.069.453-2.458.702-4.204.702v1zm4.594-.781l.385.923c1.395-.581 2.505-1.424 3.26-2.556l-.832-.555-.832-.554c-.496.742-1.26 1.358-2.366 1.819l.385.923zm2.813-2.188l.832.555c.744-1.117 1.105-2.397 1.105-3.805h-2c0 1.05-.264 1.937-.769 2.696l.832.554zM233.07 1.625h1v-1h-1v1zm0 45.5v1h1v-1h-1zm-7.781 0h-1v1h1v-1zm0-45.5v-1h-1v1h1zm22.063 0h1v-1h-1v1zm0 6.25v1h1v-1h-1zm-36.219 0h-1v1h1v-1zm0-6.25v-1h-1v1h1zm21.937 0h-1v45.5h2v-45.5h-1zm0 45.5v-1h-7.781v2h7.781v-1zm-7.781 0h1v-45.5h-2v45.5h1zm0-45.5v1h7.781v-2h-7.781v1zm22.063 0h-1v6.25h2v-6.25h-1zm0 6.25v-1h-36.219v2h36.219v-1zm-36.219 0h1v-6.25h-2v6.25h1zm0-6.25v1h36.219v-2h-36.219v1z" fill="#fff" mask="url(#a)"/></svg>